<?xml version="1.0" encoding="UTF-8" standalone="no"?>
<!-- Uploaded to: SVG Repo, www.svgrepo.com, Generator: SVG Repo Mixer Tools -->

<svg
   fill="#000000"
   version="1.1"
   id="Capa_1"
   width="800px"
   height="800px"
   viewBox="0 0 311.541 311.541"
   xml:space="preserve"
   sodipodi:docname="placeholder.svg"
   inkscape:version="1.4.2 (ebf0e940d0, 2025-05-08)"
   xmlns:inkscape="http://www.inkscape.org/namespaces/inkscape"
   xmlns:sodipodi="http://sodipodi.sourceforge.net/DTD/sodipodi-0.dtd"
   xmlns="http://www.w3.org/2000/svg"
   xmlns:svg="http://www.w3.org/2000/svg"><defs
   id="defs2"><rect
     x="-538.84582"
     y="92.334195"
     width="429.97416"
     height="260.46512"
     id="rect86" /><rect
     x="-430.72"
     y="99.396922"
     width="430.72"
     height="178.32977"
     id="rect2" /></defs><sodipodi:namedview
   id="namedview2"
   pagecolor="#ffffff"
   bordercolor="#000000"
   borderopacity="0.25"
   inkscape:showpageshadow="2"
   inkscape:pageopacity="0.0"
   inkscape:pagecheckerboard="0"
   inkscape:deskcolor="#d1d1d1"
   inkscape:export-bgcolor="#ffffffff"
   inkscape:zoom="0.725625"
   inkscape:cx="556.76141"
   inkscape:cy="392.0758"
   inkscape:window-width="2560"
   inkscape:window-height="1364"
   inkscape:window-x="0"
   inkscape:window-y="0"
   inkscape:window-maximized="1"
   inkscape:current-layer="g2" />
<rect
   style="fill:none;fill-opacity:1;stroke-width:4.11022"
   id="rect3"
   width="311.54099"
   height="311.54099"
   x="3.5527137e-15"
   y="0" /><g
   id="g2"
   style="display:inline;fill:#ace2ff;fill-opacity:1">
	<g
   id="g1"
   style="display:inline;fill:#ace2ff;fill-opacity:1">
		<path
   d="M 155.771,26.331 C 69.74,26.331 0,96.071 0,182.102 c 0,37.488 13.25,71.883 35.314,98.761 3.404,-27.256 30.627,-50.308 68.8,-61.225 13.946,12.994 31.96,20.878 51.656,20.878 19.233,0 36.894,-7.487 50.698,-19.936 38.503,11.871 65.141,36.27 66.017,64.63 24.284,-27.472 39.056,-63.555 39.056,-103.108 0,-86.031 -69.74,-155.771 -155.77,-155.771 z m 0,195.738 c -9.944,0 -19.314,-2.732 -27.634,-7.464 -20.05,-11.409 -33.855,-34.756 -33.855,-61.711 0,-38.143 27.583,-69.176 61.489,-69.176 33.909,0 61.489,31.033 61.489,69.176 0,27.369 -14.237,51.004 -34.786,62.215 -8.095,4.414 -17.128,6.96 -26.703,6.96 z"
   id="path1"
   style="fill:#ace2ff;fill-opacity:1" />
	</g><path
   style="display:inline;fill:#ffffff;fill-opacity:1;stroke-width:0.59486"
   d="M 107.22889,115.38204 90.165066,55.959989 149.50311,86.675185 Z"
   id="path3-6" />
<path
   style="fill:#ffffff;fill-opacity:1;stroke-width:0.59486"
   d="M 204.55712,115.38206 221.62096,55.95997 162.28288,86.675187 Z"
   id="path3" /><text
   xml:space="preserve"
   transform="matrix(0,0.88862263,-0.88862263,0,285.15569,598.13193)"
   id="text86"
   style="font-size:96px;text-align:start;writing-mode:lr-tb;direction:ltr;white-space:pre;shape-inside:url(#rect86);fill:#ace2ff;fill-opacity:1"><tspan
     x="-538.8457"
     y="179.682"
     id="tspan1">:3</tspan></text></g>
<text
   xml:space="preserve"
   transform="matrix(0.38942625,0,0,0.38942625,289.46549,212.11293)"
   id="text2"
   style="font-size:96px;text-align:start;writing-mode:lr-tb;direction:ltr;white-space:pre;shape-inside:url(#rect2);fill:#727272;fill-opacity:1"><tspan
     x="-430.7207"
     y="186.7445"
     id="tspan3">YCH</tspan></text></svg>
